<svg xmlns="http://www.w3.org/2000/svg" viewBox="0 0 33 33" shape-rendering="crispEdges"><path stroke="#0d0d0d" d="M0 0.5h7M8 0.5h1M10 0.5h1M12 0.5h3M16 0.5h1M18 0.5h4M23 0.5h1M26 0.5h7M0 1.5h1M6 1.5h1M8 1.5h1M10 1.5h1M13 1.5h1M20 1.5h1M23 1.5h2M26 1.5h1M32 1.5h1M0 2.5h1M2 2.5h3M6 2.5h1M9 2.5h1M12 2.5h1M15 2.5h1M18 2.5h1M20 2.5h1M22 2.5h1M24 2.5h1M26 2.5h1M28 2.5h3M32 2.5h1M0 3.5h1M2 3.5h3M6 3.5h1M8 3.5h1M10 3.5h3M14 3.5h1M16 3.5h2M19 3.5h2M23 3.5h1M26 3.5h1M28 3.5h3M32 3.5h1M0 4.5h1M2 4.5h3M6 4.5h1M10 4.5h1M14 4.5h1M18 4.5h2M21 4.5h1M24 4.5h1M26 4.5h1M28 4.5h3M32 4.5h1M0 5.5h1M6 5.5h1M9 5.5h1M11 5.5h2M14 5.5h1M18 5.5h3M22 5.5h1M26 5.5h1M32 5.5h1M0 6.5h7M8 6.5h1M10 6.5h1M12 6.5h1M14 6.5h1M16 6.5h1M18 6.5h1M20 6.5h1M22 6.5h1M24 6.5h1M26 6.5h7M8 7.5h2M12 7.5h1M17 7.5h2M23 7.5h1M0 8.5h1M2 8.5h2M5 8.5h3M9 8.5h3M14 8.5h1M16 8.5h4M21 8.5h1M23 8.5h1M26 8.5h1M29 8.5h1M31 8.5h2M0 9.5h3M4 9.5h2M8 9.5h2M11 9.5h2M18 9.5h2M23 9.5h2M26 9.5h2M29 9.5h2M32 9.5h1M6 10.5h1M8 10.5h2M14 10.5h1M22 10.5h8M31 10.5h2M1 11.5h1M4 11.5h2M8 11.5h1M11 11.5h6M18 11.5h1M24 11.5h1M27 11.5h1M29 11.5h1M32 11.5h1M0 12.5h1M3 12.5h1M6 12.5h2M15 12.5h1M18 12.5h1M22 12.5h1M24 12.5h2M27 12.5h3M32 12.5h1M0 13.5h6M7 13.5h3M11 13.5h3M16 13.5h2M19 13.5h1M24 13.5h2M27 13.5h1M31 13.5h1M0 14.5h2M3 14.5h1M6 14.5h2M9 14.5h1M12 14.5h1M14 14.5h6M22 14.5h1M24 14.5h1M26 14.5h1M28 14.5h2M0 15.5h5M8 15.5h3M12 15.5h1M16 15.5h1M19 15.5h5M25 15.5h2M29 15.5h2M1 16.5h1M6 16.5h2M9 16.5h7M18 16.5h2M21 16.5h2M25 16.5h2M28 16.5h1M30 16.5h1M0 17.5h1M2 17.5h2M5 17.5h1M7 17.5h1M10 17.5h1M12 17.5h2M15 17.5h1M17 17.5h2M20 17.5h1M23 17.5h4M28 17.5h2M31 17.5h2M4 18.5h1M6 18.5h6M13 18.5h1M15 18.5h3M20 18.5h1M22 18.5h1M24 18.5h2M27 18.5h2M30 18.5h2M0 19.5h4M9 19.5h2M14 19.5h1M19 19.5h2M24 19.5h1M28 19.5h1M1 20.5h3M6 20.5h3M10 20.5h1M12 20.5h2M18 20.5h2M21 20.5h1M23 20.5h1M25 20.5h1M29 20.5h3M0 21.5h2M4 21.5h1M8 21.5h2M12 21.5h2M15 21.5h1M18 21.5h4M23 21.5h2M26 21.5h1M30 21.5h1M32 21.5h1M2 22.5h2M6 22.5h3M11 22.5h2M14 22.5h1M16 22.5h1M20 22.5h2M23 22.5h1M25 22.5h1M28 22.5h5M1 23.5h1M4 23.5h2M11 23.5h1M16 23.5h1M19 23.5h2M22 23.5h2M25 23.5h1M27 23.5h1M29 23.5h1M31 23.5h2M0 24.5h1M3 24.5h4M10 24.5h2M13 24.5h1M15 24.5h1M17 24.5h2M20 24.5h1M22 24.5h1M24 24.5h6M31 24.5h1M8 25.5h2M11 25.5h3M15 25.5h3M19 25.5h1M21 25.5h1M23 25.5h2M28 25.5h2M31 25.5h1M0 26.5h7M8 26.5h1M10 26.5h2M14 26.5h1M16 26.5h1M19 26.5h2M22 26.5h3M26 26.5h1M28 26.5h1M0 27.5h1M6 27.5h1M8 27.5h1M11 27.5h1M13 27.5h1M15 27.5h2M20 27.5h5M28 27.5h5M0 28.5h1M2 28.5h3M6 28.5h1M9 28.5h2M14 28.5h2M17 28.5h1M21 28.5h8M30 28.5h2M0 29.5h1M2 29.5h3M6 29.5h1M8 29.5h2M11 29.5h3M17 29.5h2M20 29.5h2M23 29.5h1M27 29.5h1M32 29.5h1M0 30.5h1M2 30.5h3M6 30.5h1M8 30.5h4M13 30.5h1M22 30.5h1M26 30.5h2M29 30.5h1M0 31.5h1M6 31.5h1M9 31.5h2M15 31.5h4M24 31.5h2M27 31.5h3M32 31.5h1M0 32.5h7M8 32.5h1M11 32.5h1M14 32.5h6M21 32.5h1M23 32.5h1M26 32.5h1M28 32.5h1M30 32.5h1"/></svg>
